<svg xmlns="http://www.w3.org/2000/svg" viewBox="0 0 100 100" fill="none">
  <rect x="0" y="0" width="100" height="100" rx="18" ry="18" fill="#0d1117"/>
  <!-- Outer shield -->
  <path d="M50 9 C71 9 88 16 88 32 C88 63 70 81 50 92 C30 81 12 63 12 32 C12 16 29 9 50 9 Z"
        stroke="#22c55e" stroke-width="3" stroke-linejoin="round" fill="none"/>
  <!-- Inner shield -->
  <path d="M50 19 C68 19 78 25 78 36 C78 60 63 76 50 85 C37 76 22 60 22 36 C22 25 32 19 50 19 Z"
        stroke="#22c55e" stroke-width="2.5" stroke-linejoin="round" fill="none"/>
  <!-- Vertical dividing line -->
  <line x1="50" y1="19" x2="50" y2="85" stroke="#22c55e" stroke-width="2.5" stroke-linecap="round"/>
  <!-- Center ring -->
  <circle cx="50" cy="48" r="7" stroke="#22c55e" stroke-width="2.5" fill="none"/>
  <!-- Center dot -->
  <circle cx="50" cy="48" r="2.5" fill="#22c55e"/>
</svg>
